<?xml version="1.0" encoding="UTF-8" standalone="no"?>
<svg
   id="Layer_1"
   data-name="Layer 1"
   viewBox="0 0 137.03 91.08"
   version="1.1"
   sodipodi:docname="Title.svg"
   inkscape:version="1.1.1 (3bf5ae0d25, 2021-09-20, custom)"
   xmlns:inkscape="http://www.inkscape.org/namespaces/inkscape"
   xmlns:sodipodi="http://sodipodi.sourceforge.net/DTD/sodipodi-0.dtd"
   xmlns="http://www.w3.org/2000/svg"
   xmlns:svg="http://www.w3.org/2000/svg">
  <sodipodi:namedview
     id="namedview11"
     pagecolor="#ffffff"
     bordercolor="#666666"
     borderopacity="1.0"
     inkscape:pageshadow="2"
     inkscape:pageopacity="0.0"
     inkscape:pagecheckerboard="0"
     showgrid="false"
     inkscape:zoom="7.9819937"
     inkscape:cx="68.529245"
     inkscape:cy="45.47736"
     inkscape:window-width="1920"
     inkscape:window-height="1027"
     inkscape:window-x="0"
     inkscape:window-y="26"
     inkscape:window-maximized="1"
     inkscape:current-layer="Layer_1" />
  <defs
     id="defs4">
    <style
       id="style2">.cls-1,.cls-2{font-size:72px;}.cls-1{font-family:Tangerine-Regular, Tangerine;}.cls-2{font-family:Cherish-Regular, Cherish;}</style>
  </defs>
  <g
     aria-label="ska"
     transform="translate(83.68 62.18)"
     id="text6"
     class="cls-1"
     style="font-size:72px;font-family:Tangerine-Regular, Tangerine">
    <path
       d="m 10.008,-18.432 q 1.44,0 2.376,0.504 1.008,0.432 1.008,1.008 0,0.792 -0.36,1.8 -0.288,1.008 -0.648,1.656 -0.144,0.144 -0.432,0.072 -0.216,-0.144 -0.144,-0.36 0.216,-0.504 0.288,-1.152 0.072,-0.648 -0.072,-1.152 -0.36,-1.44 -2.016,-1.44 -1.224,0 -2.016,0.72 -0.72,0.72 -0.72,2.16 0,1.152 0.576,2.232 0.648,1.008 1.368,2.088 0.792,1.008 1.368,2.232 0.648,1.152 0.648,2.592 0,2.304 -1.656,3.888 Q 7.992,0 4.752,0 2.52,0 1.08,-0.792 q -1.44,-0.792 -1.44,-1.656 0,-0.648 0.792,-1.944 0.792,-1.296 1.8,-2.088 0.216,-0.144 0.36,0.072 0.216,0.216 0.072,0.432 -0.576,0.576 -0.864,1.368 -0.288,0.72 -0.144,1.296 0.216,1.224 1.08,1.872 0.936,0.576 2.16,0.576 1.872,0 2.88,-1.008 1.08,-1.008 1.08,-2.592 0,-1.368 -0.648,-2.52 Q 7.56,-8.208 6.768,-9.288 6.048,-10.44 5.4,-11.52 q -0.576,-1.152 -0.576,-2.448 0,-1.872 1.368,-3.168 1.44,-1.296 3.816,-1.296 z"
       style="font-size:72px;font-family:Tangerine-Regular, Tangerine"
       id="path16" />
    <path
       d="m 23.90398,-9.432 q 0.792,3.816 2.016,5.904 1.224,2.016 3.024,2.016 0.792,0 1.44,-0.36 0.72,-0.36 1.512,-1.368 0.216,-0.144 0.36,0.072 0.144,0.144 0.072,0.36 -1.008,1.296 -2.16,2.088 -1.152,0.72 -2.736,0.72 -2.304,0 -3.672,-2.448 -1.368,-2.448 -2.232,-7.128 -0.072,-0.576 0.36,-0.72 1.296,0.288 2.592,0.072 1.296,-0.288 2.304,-0.864 1.008,-0.576 1.584,-1.512 0.648,-0.936 0.648,-2.088 0,-1.8 -1.8,-1.8 -2.448,0 -4.608,2.448 -2.16,2.376 -3.24,7.056 -0.288,1.224 -0.648,2.736 -0.288,1.44 -0.504,2.448 -0.144,0.576 -0.288,0.864 -0.144,0.288 -0.648,0.504 -0.864,0.432 -1.512,0.432 -0.576,0 -0.36,-0.648 2.232,-12.024 6.048,-21.888 3.888,-9.936 8.496,-16.992 4.608,-7.128 9.504,-11.016 4.896,-3.888 9.216,-3.888 1.584,0 2.592,0.648 1.08,0.576 1.44,1.512 0.432,0.936 0.216,2.088 -0.144,1.152 -1.008,2.304 -0.504,0.36 -0.648,-0.216 0.36,-1.44 -0.72,-2.808 -1.008,-1.368 -3.528,-1.368 -3.168,0 -6.768,2.376 -3.528,2.376 -7.128,7.344 -3.6,4.968 -6.984,12.672 -3.312,7.632 -5.976,18.216 1.584,-3.096 3.672,-4.896 2.088,-1.872 4.968,-1.872 1.224,0 1.944,0.864 0.792,0.864 0.792,1.944 0,2.304 -2.232,4.032 -2.16,1.728 -5.4,2.16 z"
       style="font-size:72px;font-family:Tangerine-Regular, Tangerine"
       id="path18" />
    <path
       d="m 51.624036,-4.536 q 0.144,-0.144 0.36,0 0.216,0.144 0.144,0.432 -1.512,2.088 -3.024,3.096 -1.44,1.008 -2.448,1.008 -0.648,0 -1.08,-0.648 -0.36,-0.648 -0.504,-1.728 -0.072,-1.152 0.072,-2.52 0.216,-1.44 0.648,-2.952 -1.944,3.024 -4.104,5.256 -2.16,2.16 -4.176,2.592 -1.296,0 -2.232,-1.224 -0.864,-1.296 -0.864,-3.96 0,-2.376 0.936,-4.68 1.008,-2.376 2.664,-4.248 1.656,-1.944 3.816,-3.096 2.16,-1.152 4.536,-1.152 1.296,0 2.232,0.288 0.936,0.288 1.728,0.864 0.432,-0.36 1.152,-0.648 0.792,-0.36 1.44,-0.36 0.36,0 0.216,0.36 -1.656,2.016 -2.88,4.464 -1.152,2.448 -1.8,4.752 -0.648,2.304 -0.864,4.104 -0.144,1.728 0.288,2.376 0.36,0.504 1.296,0.072 0.936,-0.504 2.448,-2.448 z m -12.528,2.088 q 0.792,0 2.016,-1.08 1.296,-1.152 2.664,-2.952 1.368,-1.8 2.664,-4.032 1.368,-2.304 2.376,-4.608 -0.288,-0.936 -1.368,-1.512 -1.008,-0.576 -2.376,-0.576 -1.584,0 -3.024,0.864 -1.368,0.792 -2.448,2.304 -1.08,1.44 -1.728,3.456 -0.648,2.016 -0.648,4.464 0,1.584 0.504,2.664 0.576,1.008 1.368,1.008 z"
       style="font-size:72px;font-family:Tangerine-Regular, Tangerine"
       id="path20" />
  </g>
  <g
     aria-label="A"
     transform="translate(29.31 57.6)"
     id="text8"
     class="cls-2"
     style="font-size:72px;font-family:Cherish-Regular, Cherish">
    <path
       d="m -20.808,14.04 -1.224,-0.144 h -0.216 q -0.288,0.144 -1.296,0 -1.08,-0.144 -1.44,-0.216 l -0.432,-0.144 h -0.072 q -0.144,0 -0.288,-0.072 -0.144,0 -0.288,-0.072 -0.504,-0.144 -0.936,-0.36 -0.432,-0.216 -0.792,-0.432 l -0.72,-0.432 q -0.072,-0.288 -0.432,-0.792 -0.432,-0.432 -0.36,-0.72 l 0.288,-0.144 0.072,0.288 q 0.216,0.288 0.432,0.576 0.144,0.36 0.432,0.576 0.648,0.504 1.656,0.504 1.008,0 1.944,0.072 0.576,0.144 1.008,0.144 l 1.152,-0.216 0.144,0.072 q 0.216,-0.144 0.792,-0.144 0.576,0.072 0.648,-0.072 0.144,0.144 0.144,0.144 0.792,-0.288 1.728,-0.432 0.936,-0.144 1.8,-0.36 0.432,-0.072 0.864,-0.288 0.432,-0.144 0.936,-0.144 0.576,-0.36 1.512,-0.504 0.864,-0.072 1.512,-0.36 Q -9.72,9.36 -7.56,8.712 -5.4,8.136 -2.952,6.84 -2.448,6.624 -1.368,5.904 -0.288,5.184 0.72,4.392 1.8,3.672 2.304,3.456 3.96,2.304 4.824,1.8 5.688,1.296 6.336,0.864 6.984,0.432 8.064,-0.36 q 1.08,-0.864 3.168,-2.664 l 7.992,-6.912 q 1.152,-1.008 1.728,-1.728 0.648,-0.72 1.224,-1.368 0.576,-0.72 1.584,-1.584 h -0.144 q -0.072,0 -0.072,-0.072 0,-0.072 -0.072,-0.072 -0.072,0 -0.36,0.288 -0.288,0.288 -0.432,0.288 -0.072,0 -0.72,0 -0.576,-0.072 -0.648,0 L 20.808,-14.4 q 0,-0.72 0.216,-1.44 l 1.224,-2.016 q 0.144,0.072 0.144,0.144 0,0.072 0.072,0.072 0.144,0 0.72,-0.072 0.648,-0.144 1.296,-0.216 Q 25.128,-18 25.2,-18 q 0.144,0 0.72,0.072 0.576,0 0.792,0 h 0.072 q 0.504,-0.36 0.936,-0.648 0.432,-0.288 0.936,-0.576 0.216,-0.144 0.432,-0.432 0.288,-0.288 0.36,-0.36 0.72,-0.648 0.936,-1.08 0.216,-0.504 0.936,-1.224 1.44,-1.224 2.304,-2.376 0.936,-1.224 2.448,-2.376 0.288,-0.216 1.224,-1.152 0.936,-0.936 1.872,-1.872 0.936,-0.936 1.08,-0.936 0.144,-0.216 1.152,-1.224 1.08,-1.08 2.376,-2.304 1.368,-1.296 2.376,-2.304 1.08,-1.08 1.296,-1.296 0.648,-0.792 1.224,-1.512 0.648,-0.72 1.296,-1.512 l 2.088,-2.448 h -6.768 q -1.584,0 -3.168,0 -1.584,0 -2.808,0.072 -0.576,0.432 -2.088,0.648 -1.512,0.144 -2.88,0.36 -1.296,0.144 -1.584,0.504 -4.176,0.72 -8.496,2.808 -4.32,2.088 -8.28,5.112 -3.96,3.024 -7.128,6.624 -3.096,3.6 -4.968,7.416 -1.8,3.744 -1.8,7.272 0,0.576 -0.144,0.072 Q 1.8,-13.248 1.584,-14.184 1.44,-15.192 1.224,-16.056 1.008,-16.92 0.864,-16.92 L 0,-17.424 q -0.288,-0.288 -0.288,-0.792 0,-0.504 0.216,-1.08 0.216,-0.576 0.432,-1.08 1.224,-2.664 3.384,-5.328 2.232,-2.736 4.896,-5.184 2.736,-2.52 5.328,-4.392 1.224,-0.792 2.448,-1.44 1.224,-0.648 2.376,-1.368 0.144,-0.072 0.936,-0.432 0.792,-0.432 1.512,-0.792 0.792,-0.432 0.864,-0.504 0.72,-0.216 2.016,-0.72 1.296,-0.576 2.808,-1.152 1.584,-0.576 2.88,-1.008 1.296,-0.432 2.016,-0.432 h 0.072 q 0.504,-0.432 2.376,-0.864 1.944,-0.432 4.248,-0.792 2.376,-0.36 4.32,-0.504 2.016,-0.216 2.592,-0.144 l 0.072,-0.072 q 0.288,-0.144 0.792,-0.144 0.576,0 0.792,0.072 0.36,-0.072 0.576,-0.072 0.216,-0.072 0.504,-0.072 0.36,0 0.648,0.072 0.36,0 0.648,0.072 0.144,-0.072 0.432,-0.072 0.432,0 0.792,0.144 0.432,0.072 0.72,0.144 0.36,-0.216 0.576,-0.216 0.36,0 0.936,0.288 0.144,-0.144 0.504,-0.144 h 0.432 q 0.36,-0.36 0.648,-0.576 0.36,-0.216 0.648,-0.288 1.224,-0.36 1.872,-0.36 1.296,0 0.864,1.224 1.008,0 2.016,0.072 1.008,0 0.936,0.144 0,0 0.792,0.216 0.864,0.144 0.864,0.936 0,0.36 -0.36,0.864 -0.288,0.504 -1.08,1.224 -0.288,0.216 -0.648,0.216 -0.432,0 -0.864,-0.216 -0.288,0.288 -0.576,0.648 -0.216,0.288 -0.576,0.36 -0.072,0.144 -0.576,0.72 -0.432,0.504 -0.576,0.576 -0.072,0.288 -0.792,1.08 -0.648,0.72 -0.936,1.08 -0.72,0.864 -1.944,2.376 -1.152,1.44 -1.8,2.448 -0.144,0.216 -0.288,0.504 -0.144,0.288 -0.288,0.504 -0.144,0.144 -0.576,1.008 -0.432,0.792 -0.936,1.8 -0.504,1.008 -0.936,1.872 -0.432,0.792 -0.504,0.936 -0.648,1.152 -1.512,3.312 -0.792,2.088 -1.656,4.68 h 1.152 q 0.504,0 1.008,0.072 0.576,0 0.936,0.072 0.072,0 0.072,0.072 0.072,0.072 0.144,0.072 0.36,0 0.792,0.36 0.432,0.36 0.072,0.36 -0.072,0 -0.072,-0.072 0,-0.072 -0.144,-0.072 -0.144,0 -0.504,0.144 -0.36,0.072 -0.72,0.072 l -0.144,0.216 q -0.072,0 -0.072,-0.072 0,-0.144 -0.144,-0.144 -0.072,0 -0.504,0.072 -0.36,0.072 -0.72,0.144 l -0.216,0.36 q -0.288,0 -0.792,0 -0.432,-0.072 -0.648,-0.072 -1.224,3.816 -2.232,7.92 -0.936,4.104 -1.08,7.2 v 0.864 q 0,1.296 0.216,1.656 0.288,0.432 0.792,0.432 1.656,0 2.736,-1.008 1.152,-0.936 2.52,-2.448 0.36,-0.36 0.792,-0.72 0.432,-0.432 0.72,-0.936 0.432,-0.288 0.72,-0.72 0.792,-0.648 1.728,-1.872 1.008,-1.224 1.44,-1.728 0.144,-0.144 0.792,-0.936 0.648,-0.792 0.792,-0.864 0.288,-0.288 0.72,-0.864 0.432,-0.576 0.864,-1.008 0.36,-0.36 0.792,-0.36 0.432,-0.072 -0.072,0.504 -0.72,0.864 -1.872,2.304 -1.08,1.368 -2.088,2.664 -0.936,1.296 -1.368,1.8 -0.072,0 -0.576,0.72 -0.504,0.648 -1.008,1.368 -0.504,0.72 -0.648,1.008 -0.288,0.504 -1.44,1.656 -1.152,1.152 -2.304,2.16 -1.152,1.08 -1.584,1.152 h -0.288 q -0.576,0 -1.008,-0.432 Q 42.192,2.664 41.976,2.664 41.832,2.088 41.328,1.8 40.824,1.584 40.464,1.296 40.32,1.152 40.104,0.936 39.96,0.72 39.816,0.504 39.456,0.072 39.096,0 q -0.288,0 -0.504,-0.072 -0.216,-0.144 -0.36,-0.792 -0.216,-1.152 -0.576,-2.016 -0.36,-0.864 -0.216,-2.16 0.072,-0.288 0.144,-0.864 0.144,-0.576 0.144,-0.792 H 37.8 q 0,0.504 -0.144,0.936 -0.072,0.432 0,1.008 h 0.072 l -0.072,-0.072 q 0.144,-0.288 0.432,-1.368 0.288,-1.08 0.288,-1.368 -0.072,0 -0.072,-0.072 l -0.072,0.072 q 0,0.36 -0.072,0.504 -0.144,-0.288 -0.144,-0.432 -0.072,-0.504 0.288,-1.728 0.36,-1.296 0.288,-1.728 l -0.072,-0.504 q 0.288,-0.432 0.504,-1.296 0.288,-0.936 0.432,-1.44 0.216,-0.792 0.432,-1.08 0.288,-0.288 0.144,-0.936 -0.792,0 -1.584,0.072 -0.72,0 -1.08,0 h -0.072 q -0.072,0 -0.144,-0.072 -0.072,-0.072 -0.216,-0.072 l -0.072,0.072 q -0.072,0 -0.288,0.144 -0.216,0.072 -0.36,0.072 h -7.488 q -0.504,0.504 -0.864,1.008 -0.36,0.432 -0.936,0.864 l -1.728,1.44 q -0.648,0.504 -1.296,1.08 -0.576,0.576 -1.224,1.152 l -1.008,0.792 -1.152,1.08 -0.792,0.504 -2.304,2.16 q -0.36,0.36 -0.792,0.72 -0.432,0.288 -0.792,0.648 -0.504,0.432 -1.8,1.44 -1.224,1.008 -2.376,1.8 Q 10.08,-0.144 8.568,1.008 7.128,2.232 5.832,3.024 4.032,4.176 3.168,4.68 2.376,5.184 2.016,5.328 1.656,5.472 1.368,5.544 1.152,5.688 0.576,5.976 0,6.336 -1.368,7.2 -2.664,7.992 -4.032,8.712 -5.4,9.432 -6.768,10.08 q -0.288,0.144 -1.008,0.504 -0.72,0.36 -1.008,0.36 l -1.368,0.648 q -0.288,0.072 -0.576,0.144 -0.36,0.072 -0.72,0.216 -0.504,0.144 -0.936,0.288 -0.504,0.144 -1.008,0.288 -0.432,0.072 -0.792,0.216 -0.432,0.216 -0.864,0.144 -0.216,0.144 -1.152,0.36 -0.936,0.216 -1.296,0.216 l -2.304,0.504 q -0.288,0.072 -0.504,0 -0.288,0 -0.504,0.072 z M 31.608,-18 h 6.624 l 0.072,-0.072 q 0.072,-0.144 0.72,-0.144 0.36,0 0.72,0 0.432,0 0.792,0.072 0.936,-2.88 2.016,-5.4 0.144,-0.36 0.288,-0.576 0.144,-0.288 0.288,-0.576 0.36,-0.792 0.576,-1.512 0.288,-0.792 0.576,-1.512 0.648,-1.368 1.368,-2.808 0.72,-1.512 1.44,-2.664 l 0.504,-1.008 0.288,-0.36 q -0.216,0.216 -0.504,0.432 -0.216,0.216 -0.432,0.504 l -11.448,11.736 q -0.288,0.216 -0.72,0.432 -0.36,0.144 -0.576,0.504 l -0.36,0.504 -2.088,2.304 z"
       style="font-size:72px;font-family:Cherish-Regular, Cherish"
       id="path13" />
  </g>
</svg>
